<mxfile host="app.diagrams.net" modified="2024-05-06T15:46:48.152Z" agent="Mozilla/5.0 (Windows NT 10.0; Win64; x64) AppleWebKit/537.36 (KHTML, like Gecko) Chrome/124.0.0.0 Safari/537.36" etag="a4gtusmgBD-JAw9N9jmE" version="24.3.1" type="github">
  <diagram name="第 1 页" id="5MJGuNnr1driXD5DbKKl">
    <mxGraphModel dx="1667" dy="424" grid="1" gridSize="10" guides="1" tooltips="1" connect="1" arrows="1" fold="1" page="1" pageScale="1" pageWidth="827" pageHeight="1169" math="0" shadow="0">
      <root>
        <mxCell id="0" />
        <mxCell id="1" parent="0" />
        <mxCell id="Gr6BXJcJFxYdy-QEljXQ-69" value="" style="group;fontStyle=1" vertex="1" connectable="0" parent="1">
          <mxGeometry x="-760" y="10" width="700" height="550" as="geometry" />
        </mxCell>
        <mxCell id="Gr6BXJcJFxYdy-QEljXQ-20" style="edgeStyle=orthogonalEdgeStyle;rounded=0;orthogonalLoop=1;jettySize=auto;html=1;exitX=0.5;exitY=1;exitDx=0;exitDy=0;entryX=0.5;entryY=0;entryDx=0;entryDy=0;fontStyle=1" edge="1" parent="Gr6BXJcJFxYdy-QEljXQ-69" source="Gr6BXJcJFxYdy-QEljXQ-1" target="Gr6BXJcJFxYdy-QEljXQ-2">
          <mxGeometry relative="1" as="geometry" />
        </mxCell>
        <mxCell id="Gr6BXJcJFxYdy-QEljXQ-1" value="开始" style="rounded=1;whiteSpace=wrap;html=1;fillColor=none;fontSize=18;fontStyle=1;fontFamily=宋体;" vertex="1" parent="Gr6BXJcJFxYdy-QEljXQ-69">
          <mxGeometry x="250" width="120" height="40" as="geometry" />
        </mxCell>
        <mxCell id="Gr6BXJcJFxYdy-QEljXQ-21" style="edgeStyle=orthogonalEdgeStyle;rounded=0;orthogonalLoop=1;jettySize=auto;html=1;exitX=0.5;exitY=1;exitDx=0;exitDy=0;entryX=0.5;entryY=0;entryDx=0;entryDy=0;fontStyle=1" edge="1" parent="Gr6BXJcJFxYdy-QEljXQ-69" source="Gr6BXJcJFxYdy-QEljXQ-2" target="Gr6BXJcJFxYdy-QEljXQ-11">
          <mxGeometry relative="1" as="geometry" />
        </mxCell>
        <mxCell id="Gr6BXJcJFxYdy-QEljXQ-22" style="edgeStyle=orthogonalEdgeStyle;rounded=0;orthogonalLoop=1;jettySize=auto;html=1;exitX=0.5;exitY=1;exitDx=0;exitDy=0;entryX=0.5;entryY=0;entryDx=0;entryDy=0;fontStyle=1" edge="1" parent="Gr6BXJcJFxYdy-QEljXQ-69" source="Gr6BXJcJFxYdy-QEljXQ-2" target="Gr6BXJcJFxYdy-QEljXQ-9">
          <mxGeometry relative="1" as="geometry" />
        </mxCell>
        <mxCell id="Gr6BXJcJFxYdy-QEljXQ-54" style="edgeStyle=orthogonalEdgeStyle;rounded=0;orthogonalLoop=1;jettySize=auto;html=1;exitX=0.5;exitY=1;exitDx=0;exitDy=0;entryX=0.5;entryY=0;entryDx=0;entryDy=0;fontStyle=1" edge="1" parent="Gr6BXJcJFxYdy-QEljXQ-69" source="Gr6BXJcJFxYdy-QEljXQ-2" target="Gr6BXJcJFxYdy-QEljXQ-48">
          <mxGeometry relative="1" as="geometry">
            <Array as="points">
              <mxPoint x="310" y="130" />
              <mxPoint x="510" y="130" />
            </Array>
          </mxGeometry>
        </mxCell>
        <mxCell id="Gr6BXJcJFxYdy-QEljXQ-2" value="&lt;font face=&quot;Times New Roman&quot;&gt;E53-IA1&lt;/font&gt;&lt;div style=&quot;font-size: 18px;&quot;&gt;初始化&lt;/div&gt;" style="rounded=0;whiteSpace=wrap;html=1;fillColor=none;fontSize=18;fontStyle=1;fontFamily=宋体;" vertex="1" parent="Gr6BXJcJFxYdy-QEljXQ-69">
          <mxGeometry x="250" y="70" width="120" height="40" as="geometry" />
        </mxCell>
        <mxCell id="Gr6BXJcJFxYdy-QEljXQ-27" style="edgeStyle=orthogonalEdgeStyle;rounded=0;orthogonalLoop=1;jettySize=auto;html=1;exitX=0.5;exitY=1;exitDx=0;exitDy=0;entryX=0.5;entryY=0;entryDx=0;entryDy=0;fontStyle=1" edge="1" parent="Gr6BXJcJFxYdy-QEljXQ-69" source="Gr6BXJcJFxYdy-QEljXQ-3" target="Gr6BXJcJFxYdy-QEljXQ-17">
          <mxGeometry relative="1" as="geometry" />
        </mxCell>
        <mxCell id="Gr6BXJcJFxYdy-QEljXQ-40" value="成功" style="edgeLabel;html=1;align=center;verticalAlign=middle;resizable=0;points=[];labelBackgroundColor=none;fontFamily=宋体;fontStyle=1;fontSize=15;" vertex="1" connectable="0" parent="Gr6BXJcJFxYdy-QEljXQ-27">
          <mxGeometry x="-0.035" relative="1" as="geometry">
            <mxPoint x="53" y="-10" as="offset" />
          </mxGeometry>
        </mxCell>
        <mxCell id="Gr6BXJcJFxYdy-QEljXQ-41" style="edgeStyle=orthogonalEdgeStyle;rounded=0;orthogonalLoop=1;jettySize=auto;html=1;exitX=0;exitY=0.5;exitDx=0;exitDy=0;entryX=0;entryY=0.5;entryDx=0;entryDy=0;fontStyle=1" edge="1" parent="Gr6BXJcJFxYdy-QEljXQ-69" source="Gr6BXJcJFxYdy-QEljXQ-3" target="Gr6BXJcJFxYdy-QEljXQ-9">
          <mxGeometry relative="1" as="geometry">
            <Array as="points">
              <mxPoint y="270" />
              <mxPoint y="170" />
            </Array>
          </mxGeometry>
        </mxCell>
        <mxCell id="Gr6BXJcJFxYdy-QEljXQ-42" value="&lt;span&gt;失败&lt;/span&gt;" style="edgeLabel;html=1;align=center;verticalAlign=middle;resizable=0;points=[];fontFamily=宋体;fontSize=15;labelBackgroundColor=none;fontStyle=1" vertex="1" connectable="0" parent="Gr6BXJcJFxYdy-QEljXQ-41">
          <mxGeometry x="0.0914" relative="1" as="geometry">
            <mxPoint x="16" y="-25" as="offset" />
          </mxGeometry>
        </mxCell>
        <mxCell id="Gr6BXJcJFxYdy-QEljXQ-45" style="edgeStyle=orthogonalEdgeStyle;rounded=0;orthogonalLoop=1;jettySize=auto;html=1;exitX=1;exitY=0.5;exitDx=0;exitDy=0;entryX=1;entryY=0.5;entryDx=0;entryDy=0;fontStyle=1" edge="1" parent="Gr6BXJcJFxYdy-QEljXQ-69" source="Gr6BXJcJFxYdy-QEljXQ-3" target="Gr6BXJcJFxYdy-QEljXQ-11">
          <mxGeometry relative="1" as="geometry" />
        </mxCell>
        <mxCell id="Gr6BXJcJFxYdy-QEljXQ-46" value="&lt;font style=&quot;font-size: 15px;&quot; face=&quot;宋体&quot;&gt;&lt;span&gt;失败&lt;/span&gt;&lt;/font&gt;" style="edgeLabel;html=1;align=center;verticalAlign=middle;resizable=0;points=[];labelBackgroundColor=none;fontStyle=1" vertex="1" connectable="0" parent="Gr6BXJcJFxYdy-QEljXQ-45">
          <mxGeometry x="0.3214" y="6" relative="1" as="geometry">
            <mxPoint x="-11" y="-1" as="offset" />
          </mxGeometry>
        </mxCell>
        <mxCell id="Gr6BXJcJFxYdy-QEljXQ-47" style="edgeStyle=orthogonalEdgeStyle;rounded=0;orthogonalLoop=1;jettySize=auto;html=1;exitX=0.5;exitY=1;exitDx=0;exitDy=0;entryX=0.5;entryY=0;entryDx=0;entryDy=0;fontStyle=1" edge="1" parent="Gr6BXJcJFxYdy-QEljXQ-69" source="Gr6BXJcJFxYdy-QEljXQ-3" target="Gr6BXJcJFxYdy-QEljXQ-19">
          <mxGeometry relative="1" as="geometry" />
        </mxCell>
        <mxCell id="Gr6BXJcJFxYdy-QEljXQ-3" value="校验&lt;span style=&quot;background-color: initial;&quot;&gt;数据&lt;/span&gt;" style="rhombus;whiteSpace=wrap;html=1;fillColor=none;fontSize=18;fontStyle=1;fontFamily=宋体;verticalAlign=middle;labelPosition=center;verticalLabelPosition=middle;align=center;" vertex="1" parent="Gr6BXJcJFxYdy-QEljXQ-69">
          <mxGeometry x="90" y="230" width="120" height="80" as="geometry" />
        </mxCell>
        <mxCell id="Gr6BXJcJFxYdy-QEljXQ-4" value="结束" style="rounded=1;whiteSpace=wrap;html=1;fillColor=none;fontSize=18;fontStyle=1;fontFamily=宋体;" vertex="1" parent="Gr6BXJcJFxYdy-QEljXQ-69">
          <mxGeometry x="250" y="510" width="120" height="40" as="geometry" />
        </mxCell>
        <mxCell id="Gr6BXJcJFxYdy-QEljXQ-26" style="edgeStyle=orthogonalEdgeStyle;rounded=0;orthogonalLoop=1;jettySize=auto;html=1;exitX=0.5;exitY=1;exitDx=0;exitDy=0;entryX=0.5;entryY=0;entryDx=0;entryDy=0;fontStyle=1" edge="1" parent="Gr6BXJcJFxYdy-QEljXQ-69" source="Gr6BXJcJFxYdy-QEljXQ-9" target="Gr6BXJcJFxYdy-QEljXQ-3">
          <mxGeometry relative="1" as="geometry" />
        </mxCell>
        <mxCell id="Gr6BXJcJFxYdy-QEljXQ-9" value="&lt;font face=&quot;Times New Roman&quot;&gt;SHT30&lt;/font&gt;&lt;br&gt;&lt;div style=&quot;font-size: 18px;&quot;&gt;初始化&lt;/div&gt;" style="rounded=0;whiteSpace=wrap;html=1;fillColor=none;fontSize=18;fontStyle=1;fontFamily=宋体;" vertex="1" parent="Gr6BXJcJFxYdy-QEljXQ-69">
          <mxGeometry x="20" y="150" width="120" height="40" as="geometry" />
        </mxCell>
        <mxCell id="Gr6BXJcJFxYdy-QEljXQ-44" style="edgeStyle=orthogonalEdgeStyle;rounded=0;orthogonalLoop=1;jettySize=auto;html=1;exitX=0.5;exitY=1;exitDx=0;exitDy=0;entryX=0.5;entryY=0;entryDx=0;entryDy=0;fontStyle=1" edge="1" parent="Gr6BXJcJFxYdy-QEljXQ-69" source="Gr6BXJcJFxYdy-QEljXQ-11" target="Gr6BXJcJFxYdy-QEljXQ-3">
          <mxGeometry relative="1" as="geometry" />
        </mxCell>
        <mxCell id="Gr6BXJcJFxYdy-QEljXQ-11" value="&lt;font face=&quot;Times New Roman&quot;&gt;BH1750&lt;/font&gt;&lt;br&gt;&lt;div style=&quot;font-size: 18px;&quot;&gt;初始化&lt;/div&gt;" style="rounded=0;whiteSpace=wrap;html=1;fillColor=none;fontSize=18;fontStyle=1;fontFamily=宋体;" vertex="1" parent="Gr6BXJcJFxYdy-QEljXQ-69">
          <mxGeometry x="160" y="150" width="120" height="40" as="geometry" />
        </mxCell>
        <mxCell id="Gr6BXJcJFxYdy-QEljXQ-35" style="edgeStyle=orthogonalEdgeStyle;rounded=0;orthogonalLoop=1;jettySize=auto;html=1;exitX=0.5;exitY=1;exitDx=0;exitDy=0;entryX=0.5;entryY=0;entryDx=0;entryDy=0;fontStyle=1" edge="1" parent="Gr6BXJcJFxYdy-QEljXQ-69" source="Gr6BXJcJFxYdy-QEljXQ-17" target="Gr6BXJcJFxYdy-QEljXQ-29">
          <mxGeometry relative="1" as="geometry">
            <Array as="points">
              <mxPoint x="80" y="410" />
              <mxPoint x="310" y="410" />
            </Array>
          </mxGeometry>
        </mxCell>
        <mxCell id="Gr6BXJcJFxYdy-QEljXQ-17" value="采集温湿度数据并计算" style="rounded=0;whiteSpace=wrap;html=1;fillColor=none;fontSize=18;fontStyle=1;fontFamily=宋体;" vertex="1" parent="Gr6BXJcJFxYdy-QEljXQ-69">
          <mxGeometry x="20" y="350" width="120" height="40" as="geometry" />
        </mxCell>
        <mxCell id="Gr6BXJcJFxYdy-QEljXQ-43" style="edgeStyle=orthogonalEdgeStyle;rounded=0;orthogonalLoop=1;jettySize=auto;html=1;exitX=0.5;exitY=1;exitDx=0;exitDy=0;entryX=0.5;entryY=0;entryDx=0;entryDy=0;fontStyle=1" edge="1" parent="Gr6BXJcJFxYdy-QEljXQ-69" source="Gr6BXJcJFxYdy-QEljXQ-19" target="Gr6BXJcJFxYdy-QEljXQ-29">
          <mxGeometry relative="1" as="geometry">
            <Array as="points">
              <mxPoint x="220" y="410" />
              <mxPoint x="310" y="410" />
            </Array>
          </mxGeometry>
        </mxCell>
        <mxCell id="Gr6BXJcJFxYdy-QEljXQ-19" value="采集光照强度数据并计算" style="rounded=0;whiteSpace=wrap;html=1;fillColor=none;fontSize=18;fontStyle=1;fontFamily=宋体;" vertex="1" parent="Gr6BXJcJFxYdy-QEljXQ-69">
          <mxGeometry x="160" y="350" width="120" height="40" as="geometry" />
        </mxCell>
        <mxCell id="Gr6BXJcJFxYdy-QEljXQ-34" style="edgeStyle=orthogonalEdgeStyle;rounded=0;orthogonalLoop=1;jettySize=auto;html=1;exitX=0.5;exitY=1;exitDx=0;exitDy=0;entryX=0.5;entryY=0;entryDx=0;entryDy=0;fontStyle=1" edge="1" parent="Gr6BXJcJFxYdy-QEljXQ-69" source="Gr6BXJcJFxYdy-QEljXQ-29" target="Gr6BXJcJFxYdy-QEljXQ-4">
          <mxGeometry relative="1" as="geometry" />
        </mxCell>
        <mxCell id="Gr6BXJcJFxYdy-QEljXQ-29" value="去初始化" style="rounded=0;whiteSpace=wrap;html=1;fillColor=none;fontSize=18;fontStyle=1;fontFamily=宋体;" vertex="1" parent="Gr6BXJcJFxYdy-QEljXQ-69">
          <mxGeometry x="250" y="440" width="120" height="40" as="geometry" />
        </mxCell>
        <mxCell id="Gr6BXJcJFxYdy-QEljXQ-57" style="edgeStyle=orthogonalEdgeStyle;rounded=0;orthogonalLoop=1;jettySize=auto;html=1;exitX=0;exitY=0.5;exitDx=0;exitDy=0;entryX=0.5;entryY=0;entryDx=0;entryDy=0;fontStyle=1" edge="1" parent="Gr6BXJcJFxYdy-QEljXQ-69" source="Gr6BXJcJFxYdy-QEljXQ-48" target="Gr6BXJcJFxYdy-QEljXQ-49">
          <mxGeometry relative="1" as="geometry" />
        </mxCell>
        <mxCell id="Gr6BXJcJFxYdy-QEljXQ-59" style="edgeStyle=orthogonalEdgeStyle;rounded=0;orthogonalLoop=1;jettySize=auto;html=1;exitX=1;exitY=0.5;exitDx=0;exitDy=0;entryX=0.5;entryY=0;entryDx=0;entryDy=0;fontStyle=1" edge="1" parent="Gr6BXJcJFxYdy-QEljXQ-69" source="Gr6BXJcJFxYdy-QEljXQ-48" target="Gr6BXJcJFxYdy-QEljXQ-53">
          <mxGeometry relative="1" as="geometry" />
        </mxCell>
        <mxCell id="Gr6BXJcJFxYdy-QEljXQ-61" style="edgeStyle=orthogonalEdgeStyle;rounded=0;orthogonalLoop=1;jettySize=auto;html=1;exitX=0;exitY=0.5;exitDx=0;exitDy=0;entryX=0.5;entryY=0;entryDx=0;entryDy=0;fontStyle=1" edge="1" parent="Gr6BXJcJFxYdy-QEljXQ-69" source="Gr6BXJcJFxYdy-QEljXQ-48" target="Gr6BXJcJFxYdy-QEljXQ-52">
          <mxGeometry relative="1" as="geometry">
            <Array as="points">
              <mxPoint x="360" y="220" />
              <mxPoint x="360" y="305" />
              <mxPoint x="460" y="305" />
            </Array>
          </mxGeometry>
        </mxCell>
        <mxCell id="Gr6BXJcJFxYdy-QEljXQ-64" value="ON" style="edgeLabel;html=1;align=center;verticalAlign=middle;resizable=0;points=[];labelBackgroundColor=none;fontFamily=Times New Roman;fontSize=15;fontStyle=1" vertex="1" connectable="0" parent="Gr6BXJcJFxYdy-QEljXQ-61">
          <mxGeometry x="-0.1376" y="-2" relative="1" as="geometry">
            <mxPoint x="14" y="2" as="offset" />
          </mxGeometry>
        </mxCell>
        <mxCell id="Gr6BXJcJFxYdy-QEljXQ-62" style="edgeStyle=orthogonalEdgeStyle;rounded=0;orthogonalLoop=1;jettySize=auto;html=1;exitX=1;exitY=0.5;exitDx=0;exitDy=0;entryX=0.5;entryY=0;entryDx=0;entryDy=0;fontStyle=1" edge="1" parent="Gr6BXJcJFxYdy-QEljXQ-69" source="Gr6BXJcJFxYdy-QEljXQ-48" target="Gr6BXJcJFxYdy-QEljXQ-51">
          <mxGeometry relative="1" as="geometry">
            <Array as="points">
              <mxPoint x="660" y="220" />
              <mxPoint x="660" y="305" />
              <mxPoint x="560" y="305" />
            </Array>
          </mxGeometry>
        </mxCell>
        <mxCell id="Gr6BXJcJFxYdy-QEljXQ-63" value="OFF" style="edgeLabel;html=1;align=center;verticalAlign=middle;resizable=0;points=[];fontFamily=Times New Roman;labelBackgroundColor=none;fontSize=15;fontStyle=1" vertex="1" connectable="0" parent="Gr6BXJcJFxYdy-QEljXQ-62">
          <mxGeometry x="-0.1383" y="-1" relative="1" as="geometry">
            <mxPoint x="16" y="2" as="offset" />
          </mxGeometry>
        </mxCell>
        <mxCell id="Gr6BXJcJFxYdy-QEljXQ-48" value="判断状态值" style="rhombus;whiteSpace=wrap;html=1;fillColor=none;fontSize=18;fontStyle=1;fontFamily=宋体;verticalAlign=middle;labelPosition=center;verticalLabelPosition=middle;align=center;" vertex="1" parent="Gr6BXJcJFxYdy-QEljXQ-69">
          <mxGeometry x="450" y="180" width="120" height="80" as="geometry" />
        </mxCell>
        <mxCell id="Gr6BXJcJFxYdy-QEljXQ-65" style="edgeStyle=orthogonalEdgeStyle;rounded=0;orthogonalLoop=1;jettySize=auto;html=1;exitX=0.5;exitY=1;exitDx=0;exitDy=0;entryX=0.5;entryY=0;entryDx=0;entryDy=0;fontStyle=1" edge="1" parent="Gr6BXJcJFxYdy-QEljXQ-69" source="Gr6BXJcJFxYdy-QEljXQ-49" target="Gr6BXJcJFxYdy-QEljXQ-29">
          <mxGeometry relative="1" as="geometry">
            <Array as="points">
              <mxPoint x="360" y="410" />
              <mxPoint x="310" y="410" />
            </Array>
          </mxGeometry>
        </mxCell>
        <mxCell id="Gr6BXJcJFxYdy-QEljXQ-49" value="启动电机" style="rounded=0;whiteSpace=wrap;html=1;fillColor=none;fontSize=18;fontStyle=1;fontFamily=宋体;" vertex="1" parent="Gr6BXJcJFxYdy-QEljXQ-69">
          <mxGeometry x="320" y="350" width="80" height="40" as="geometry" />
        </mxCell>
        <mxCell id="Gr6BXJcJFxYdy-QEljXQ-67" style="edgeStyle=orthogonalEdgeStyle;rounded=0;orthogonalLoop=1;jettySize=auto;html=1;exitX=0.5;exitY=1;exitDx=0;exitDy=0;entryX=0.5;entryY=0;entryDx=0;entryDy=0;fontStyle=1" edge="1" parent="Gr6BXJcJFxYdy-QEljXQ-69" source="Gr6BXJcJFxYdy-QEljXQ-51" target="Gr6BXJcJFxYdy-QEljXQ-29">
          <mxGeometry relative="1" as="geometry">
            <Array as="points">
              <mxPoint x="560" y="410" />
              <mxPoint x="310" y="410" />
            </Array>
          </mxGeometry>
        </mxCell>
        <mxCell id="Gr6BXJcJFxYdy-QEljXQ-51" value="关闭电机" style="rounded=0;whiteSpace=wrap;html=1;fillColor=none;fontSize=18;fontStyle=1;fontFamily=宋体;" vertex="1" parent="Gr6BXJcJFxYdy-QEljXQ-69">
          <mxGeometry x="520" y="350" width="80" height="40" as="geometry" />
        </mxCell>
        <mxCell id="Gr6BXJcJFxYdy-QEljXQ-66" style="edgeStyle=orthogonalEdgeStyle;rounded=0;orthogonalLoop=1;jettySize=auto;html=1;exitX=0.5;exitY=1;exitDx=0;exitDy=0;entryX=0.5;entryY=0;entryDx=0;entryDy=0;fontStyle=1" edge="1" parent="Gr6BXJcJFxYdy-QEljXQ-69" source="Gr6BXJcJFxYdy-QEljXQ-52" target="Gr6BXJcJFxYdy-QEljXQ-29">
          <mxGeometry relative="1" as="geometry">
            <Array as="points">
              <mxPoint x="460" y="410" />
              <mxPoint x="310" y="410" />
            </Array>
          </mxGeometry>
        </mxCell>
        <mxCell id="Gr6BXJcJFxYdy-QEljXQ-52" value="点亮灯" style="rounded=0;whiteSpace=wrap;html=1;fillColor=none;fontSize=18;fontStyle=1;fontFamily=宋体;" vertex="1" parent="Gr6BXJcJFxYdy-QEljXQ-69">
          <mxGeometry x="420" y="350" width="80" height="40" as="geometry" />
        </mxCell>
        <mxCell id="Gr6BXJcJFxYdy-QEljXQ-68" style="edgeStyle=orthogonalEdgeStyle;rounded=0;orthogonalLoop=1;jettySize=auto;html=1;exitX=0.5;exitY=1;exitDx=0;exitDy=0;entryX=0.5;entryY=0;entryDx=0;entryDy=0;fontStyle=1" edge="1" parent="Gr6BXJcJFxYdy-QEljXQ-69" source="Gr6BXJcJFxYdy-QEljXQ-53" target="Gr6BXJcJFxYdy-QEljXQ-29">
          <mxGeometry relative="1" as="geometry">
            <Array as="points">
              <mxPoint x="660" y="410" />
              <mxPoint x="310" y="410" />
            </Array>
          </mxGeometry>
        </mxCell>
        <mxCell id="Gr6BXJcJFxYdy-QEljXQ-53" value="关闭灯" style="rounded=0;whiteSpace=wrap;html=1;fillColor=none;fontSize=18;fontStyle=1;fontFamily=宋体;" vertex="1" parent="Gr6BXJcJFxYdy-QEljXQ-69">
          <mxGeometry x="620" y="350" width="80" height="40" as="geometry" />
        </mxCell>
      </root>
    </mxGraphModel>
  </diagram>
</mxfile>
